PathFileType	4	(X/Y/Z)	D:\TRACE\v60_Jaco2_6-2-23\BothDRS_Motion3_6-platform.trc
DataRate	CameraRate	NumFrames	NumMarkers	Units	OrigDataRate	OrigDataStartFrame	OrigNumFrames
100.00	100.00	      36	5	mm	100.00	3501	      7000
Frame#	Time	Left_Front			Right_Front			Left_Aft			Right_Aft			Post			
		X1	Y1	Z1	X2	Y2	Z2	X3	Y3	Z3	X4	Y4	Z4	X5	Y5	Z5	

3501	35.000	-747.57794	-3.31616	-653.55048	822.64990	-4.87558	-630.61017	-678.73151	20.58195	482.93784	735.64087	19.23379	585.62653	46.80267	1287.44678	-991.87665	
3502	35.010	-747.56293	-3.13471	-653.44702	822.70776	-4.83133	-630.56183	-678.75555	20.55895	482.92343	735.80054	19.32090	585.68982	46.79125	1287.62976	-991.78436	
3503	35.020	-747.56464	-3.05769	-653.40991	822.81018	-4.58113	-630.55957	-678.69843	20.55485	482.93643	735.83893	19.28264	585.76532	47.15791	1287.97058	-991.99420	
3504	35.030	-747.54639	-3.01343	-653.39722	822.84290	-4.43169	-630.54742	-678.59277	20.41322	482.90247	735.90973	19.27036	585.81561	47.20636	1288.05334	-991.71307	
3505	35.040	-747.55902	-2.86157	-653.29199	822.75330	-4.35595	-630.57648	-678.33203	19.93225	483.19592	735.69781	19.04110	585.80780	47.19094	1288.26453	-991.57269	
3506	35.050	-747.63446	-2.76777	-653.22589	822.72791	-4.39827	-630.49933	-678.36731	19.89136	483.21030	735.61475	18.89547	585.84747	47.25469	1288.54041	-991.32111	
3507	35.060	-747.65051	-2.62859	-653.16357	822.79907	-4.10348	-630.41705	-678.43353	19.87338	483.27350	735.75110	18.91381	586.02509	47.37402	1288.81067	-990.99591	
3508	35.070	-747.70569	-2.53832	-653.10529	822.65613	-3.92963	-630.39313	-678.43854	19.90171	483.29346	735.91101	18.82785	586.02747	47.50207	1289.09241	-990.78900	
3509	35.080	-747.69476	-2.41730	-653.07629	822.70508	-3.77547	-630.36633	-678.42499	19.76460	483.37494	735.85565	18.68819	586.04272	47.61808	1289.44775	-990.49091	
3510	35.090	-747.77094	-2.53921	-653.21906	822.65521	-3.66113	-630.35870	-678.62012	19.86662	483.08029	735.73383	18.42674	585.95288	47.47488	1289.70947	-990.16870	
3511	35.100	-747.90918	-2.33566	-652.98761	822.89423	-3.56723	-630.55725	-678.69629	19.65399	483.16830	735.65094	18.19765	586.11407	47.60799	1289.84631	-989.67645	
3512	35.110	-747.89063	-2.11145	-652.83087	822.72198	-3.11333	-630.15167	-678.76709	19.36621	483.26031	735.70618	17.98900	586.22461	47.44484	1290.16699	-989.06628	
3513	35.120	-747.72797	-1.69666	-652.88110	822.73816	-2.72940	-630.10760	-678.73285	19.21463	483.30304	735.81738	17.80814	586.35168	47.35525	1290.77649	-988.61304	
3514	35.130	-747.84106	-1.06613	-652.82245	822.75153	-2.48814	-630.15082	-678.70392	18.96214	483.29675	735.80847	17.64672	586.37122	47.30676	1291.46167	-987.66217	
3515	35.140	-747.78052	-0.58979	-652.71729	822.71814	-2.17095	-630.10181	-678.76062	18.82282	483.23724	735.79993	17.43119	586.40320	47.35643	1291.82800	-986.84851	
3516	35.150	-747.86426	-0.20387	-652.42865	822.70654	-1.77492	-629.98639	-678.84473	18.61148	483.27527	735.88794	17.10449	586.55267	47.25792	1292.18335	-986.12909	
3517	35.160	-748.13916	0.24245	-652.00122	822.65662	-1.49289	-629.92053	-678.92365	18.22130	483.46695	735.77783	16.70140	586.81531	47.33913	1292.75159	-985.17480	
3518	35.170	-748.23004	0.51867	-651.93793	822.81958	-1.23431	-630.14783	-678.92554	17.93607	483.66513	735.52917	16.36588	586.74225	47.39556	1293.27563	-984.13458	
3519	35.180	-748.57733	1.04795	-651.78351	822.44299	-0.81006	-629.78442	-678.85315	17.50511	483.83334	735.46985	16.18895	586.81323	47.15709	1293.89026	-983.15686	
3520	35.190	-748.51440	1.08864	-652.31079	822.30865	-0.42718	-629.62329	-678.94653	17.28673	483.95590	735.12604	15.76621	586.87073	47.03628	1294.59778	-982.34412	
3521	35.200	-748.64398	1.42020	-652.44269	822.23291	-0.09986	-629.61469	-679.08734	17.08884	484.03491	735.14233	15.59331	586.90948	46.78298	1294.90491	-981.70245	
3522	35.210	-748.76575	1.88129	-652.28894	822.15308	0.34745	-629.53107	-679.25562	16.86076	484.03040	735.00916	15.28079	587.03510	46.64436	1295.42065	-980.89368	
3523	35.220	-748.58246	2.24967	-652.11505	822.04840	0.87926	-629.36267	-679.40955	16.60518	484.15131	735.03387	14.92544	587.18506	46.73344	1296.38501	-979.77759	
3524	35.230	-748.55762	2.68867	-652.02618	822.05176	1.09699	-629.79730	-679.50220	16.36516	484.27841	734.89453	14.43402	587.25446	46.66265	1296.83740	-979.12701	
3525	35.240	-748.71423	3.11515	-652.05524	821.94421	1.72646	-629.26422	-679.60443	16.13088	484.36176	734.78583	14.16823	587.39172	46.45513	1297.50269	-978.51843	
3526	35.250	-748.81427	3.64884	-652.23218	821.69897	2.23575	-629.15515	-679.65875	15.54717	484.47098	734.82550	13.89283	587.45776	46.30913	1298.39380	-977.71161	
3527	35.260	-748.96545	4.25646	-652.22070	821.51941	2.73751	-629.02362	-679.69751	15.06924	484.68051	734.39606	13.23492	587.45087	46.29840	1299.00183	-976.68695	
3528	35.270	-749.17859	4.81499	-651.93140	821.46057	3.23918	-628.85156	-679.90454	14.81693	484.90775	734.31897	12.80770	587.64270	46.12304	1299.56189	-975.67786	
3529	35.280	-749.21405	5.11156	-651.66644	821.37329	3.70023	-628.88770	-680.02435	14.57567	485.01047	734.32562	12.46734	587.76892	45.82899	1300.46509	-974.53589	
3530	35.290	-749.30347	5.41338	-651.82330	821.16730	4.08551	-628.76349	-680.08893	14.32545	485.13187	734.28204	12.15629	587.97620	45.92946	1301.27844	-973.52850	
3531	35.300	-749.47821	5.82445	-651.84619	820.95856	4.76223	-628.65381	-680.32648	13.95924	485.22470	734.07220	11.70171	588.18073	45.89565	1301.98352	-972.19061	
3532	35.310	-749.72205	6.39034	-651.35272	820.95868	5.48075	-628.37421	-680.45276	13.48661	485.38284	733.53467	10.81444	588.01837	45.51024	1302.73865	-970.85919	
3533	35.320	-750.03784	7.09808	-651.15613	820.93341	5.63064	-628.81757	-680.49200	13.10325	485.54083	733.57568	10.68212	588.09528	45.25265	1303.55396	-969.31891	
3534	35.330	-750.08521	7.62647	-650.80841	820.49536	6.34853	-628.27325	-680.52167	12.66759	485.67874	733.39777	10.34656	588.28589	45.01406	1304.32874	-968.01575	
3535	35.340	-750.17175	8.29198	-650.69562	820.41461	7.11537	-628.02563	-680.76575	12.19545	485.79138	733.00317	9.68379	588.51227	44.59218	1305.19983	-966.70001	
3536	35.350	-750.31360	8.92081	-650.65381	820.18677	7.60154	-628.01007	-681.10522	11.89145	485.82794	733.02509	9.32848	588.73322	44.72211	1306.31885	-965.29370	
